<svg width="127" height="128" viewBox="0 0 127 128" fill="none" xmlns="http://www.w3.org/2000/svg">
<path d="M117.93 4.06947C118.511 3.47882 118.511 2.52119 117.93 1.93054C117.35 1.33989 116.408 1.33989 115.827 1.93054L117.93 4.06947ZM62.9305 59.9938L117.93 4.06947L115.827 1.93054L60.8269 57.8549L62.9305 59.9938Z" fill="white" fill-opacity="1"/>
<path d="M7.94822 4.06947C7.36733 3.47882 7.36733 2.52119 7.94822 1.93054C8.5291 1.33989 9.4709 1.33989 10.0518 1.93054L7.94822 4.06947ZM62.9482 59.9938L7.94822 4.06947L10.0518 1.93054L65.0518 57.8549L62.9482 59.9938Z" fill="white" fill-opacity="1"/>
<path d="M117.93 36.6073C118.511 36.0166 118.511 35.059 117.93 34.4684C117.35 33.8777 116.408 33.8777 115.827 34.4684L117.93 36.6073ZM62.9305 92.5317L117.93 36.6073L115.827 34.4684L60.8269 90.3927L62.9305 92.5317Z" fill="white" fill-opacity="1"/>
<path d="M7.94822 36.6073C7.36733 36.0166 7.36733 35.059 7.94822 34.4684C8.5291 33.8777 9.4709 33.8777 10.0518 34.4684L7.94822 36.6073ZM62.9482 92.5317L7.94822 36.6073L10.0518 34.4684L65.0518 90.3927L62.9482 92.5317Z" fill="white" fill-opacity="1"/>
<path d="M117.93 69.1451C118.511 68.5544 118.511 67.5968 117.93 67.0062C117.35 66.4155 116.408 66.4155 115.827 67.0062L117.93 69.1451ZM62.9305 125.069L117.93 69.1451L115.827 67.0062L60.8269 122.931L62.9305 125.069Z" fill="white" fill-opacity="1"/>
<path d="M7.94822 69.1451C7.36733 68.5544 7.36733 67.5968 7.94822 67.0062C8.5291 66.4155 9.4709 66.4155 10.0518 67.0062L7.94822 69.1451ZM62.9482 125.069L7.94822 69.1451L10.0518 67.0062L65.0518 122.931L62.9482 125.069Z" fill="white" fill-opacity="1"/>
</svg>
